# xmcd
#
# Track frame offsets:
#	150
#	14409
#	44591
#	56952
#	69616
#	82041
#	95215
#	110404
#	125182
#	140769
#	154659
#	167360
#	185470
#	205912
#
# Disc length: 2987 seconds
#
# Revision: 0
# Processed by: cddbd v1.4PL0 Copyright (c) Steve Scherf et al.
# Submitted via: audiograbber 1.81.03
#
DISCID=d40ba90e
DTITLE=Amaradheeva - Aaraadhanaa
DYEAR=1999
DGENRE=Ballad
TTITLE0=Paavenaa
TTITLE1=Sinidhu sudhu muthu
TTITLE2=Raee dhuru rata mee
TTITLE3=Mee guru paaree
TTITLE4=Hanthaanee kandhu mudhuna
TTITLE5=Maa dhaen mahalu viyee
TTITLE6=Maa mala pasu
TTITLE7=Sandha horen
TTITLE8=Siipadha raavee
TTITLE9=Bol vii
TTITLE10=Kandhulu kathaavee
TTITLE11=Aaraadhanaa
TTITLE12=Heluvaanam
TTITLE13=Pipena kusuma
EXTD=
EXTT0=
EXTT1=
EXTT2=
EXTT3=
EXTT4=
EXTT5=
EXTT6=
EXTT7=
EXTT8=
EXTT9=
EXTT10=
EXTT11=
EXTT12=
EXTT13=
PLAYORDER=
